<svg width="128" height="128" viewBox="0 0 128 128" fill="none" xmlns="http://www.w3.org/2000/svg">

<path d="M108.142 81.0715C108.537 81.0462 108.941 81.0287 109.337 81.0413C112.209 81.1339 115.091 81.0329 117.962 81.1262C117.936 81.4895 117.912 82.0163 117.858 82.36L109.885 82.4238C109.904 83.168 109.929 83.9123 109.961 84.6558C110.697 84.5947 111.476 84.5877 112.217 84.5983C113.864 84.6207 115.527 84.5772 117.174 84.6151C117.143 84.9651 117.099 85.3509 117.084 85.6981C116.993 85.8222 116.963 85.9176 116.787 85.9204C114.515 85.9555 112.17 85.9857 109.902 86.0221C109.903 86.8351 109.872 87.9995 109.923 88.783C112.666 88.6069 115.283 88.7381 118 88.7724C117.978 88.9955 117.924 89.3574 117.955 89.5679L117.742 89.5805C116.607 89.8014 113.354 89.6773 112.085 89.7159C111.121 89.7453 109.251 89.8169 108.367 89.7678C108.346 89.173 108.456 85.6069 108.319 85.3937C108.242 83.9459 108.212 82.5129 108.142 81.0715Z" fill="#151516"/>
<path d="M94.1138 81.0436C95.262 81.0169 96.6073 81.0471 97.8082 81.0737C99.3801 81.1081 102.574 80.7686 103.859 81.7415C104.994 82.6014 105.029 85.1651 104.049 86.1654C103.312 86.918 102.522 86.9664 101.538 87.012C99.6333 87.0092 97.7486 87.0681 95.8449 87.1067C95.7993 87.7871 95.8758 89.5049 95.638 89.8605C95.1982 90.1726 94.7843 90.0155 94.2302 89.9285C94.1068 87.7843 94.0927 85.6197 94.1075 83.4726C94.1117 82.8483 94.0275 81.5738 94.1138 81.0436ZM95.9031 82.4156C95.9403 83.5652 95.9312 84.7162 95.8765 85.8652C97.2681 85.9269 98.6618 85.9304 100.054 85.8757C100.793 85.8694 102.115 85.9767 102.584 85.417C103.605 84.1951 103.133 82.4513 101.404 82.3594C100.514 82.3124 99.7554 82.3138 98.8996 82.3223C98.0937 82.3461 96.6614 82.4415 95.9031 82.4156Z" fill="#151516"/>
<path d="M79.314 87.3114C79.1015 86.2887 79.2523 84.8985 79.3112 83.8351C79.4795 80.7966 82.1015 81.1199 84.3587 81.0701C85.6261 81.0421 86.9329 81.0147 88.2018 81.169C88.5329 81.4166 88.7713 81.4222 89.1389 81.599C90.9177 82.4554 90.3587 84.4952 90.4884 86.0404C90.6385 87.8235 90.3166 89.3294 88.2481 89.6465C86.9357 89.7889 85.5953 89.7412 84.2773 89.744C83.4538 89.7461 82.6563 89.7755 81.8426 89.7089C79.7299 89.5371 80.0652 88.3636 79.314 87.3114ZM89.0119 83.4129C88.6802 82.9184 88.4753 82.8209 87.9808 82.5052C86.8586 82.3467 82.4999 82.0739 81.6645 82.6694C81.1749 83.0187 80.9932 83.5889 80.9154 84.1599C80.7372 85.4582 80.8221 86.7783 81.1651 88.043C81.4807 88.2303 81.7241 88.6547 82.1323 88.6925C83.7758 88.8468 85.495 88.8034 87.1447 88.7297C87.7045 88.7045 88.4031 88.4309 88.7391 87.9665C89.3956 87.1248 89.148 84.4328 89.0119 83.4129Z" fill="#151516"/>
<path d="M66.5579 89.1922C66.3657 89.0891 66.2079 88.9453 66.0851 88.7426C65.2939 87.2829 65.5093 85.0418 65.6594 83.4447C65.7955 81.9927 67.0194 81.2022 68.3613 81.1468C70.7644 81.0465 73.2706 80.963 75.6674 81.1089C75.7915 81.1166 75.7894 81.1875 75.8462 81.2885C75.8364 81.6666 75.8771 82.0601 75.6393 82.3364C75.1315 82.4143 73.5245 82.368 72.9023 82.3561C71.4384 82.328 70.1457 82.354 68.6874 82.4143C67.1829 82.9972 67.1639 84.1265 67.1408 85.5504C67.1254 86.4405 67.1689 87.1931 67.4838 88.0327C68.6601 88.9888 70.0152 88.7734 71.4448 88.7475C72.9437 88.7201 74.3858 88.6388 75.889 88.6759C75.8602 89.0575 75.8539 89.5331 75.7228 89.8796C75.4303 90.1047 68.9336 89.9203 68.0667 89.8852C67.6206 89.867 66.91 89.5254 66.5579 89.1922Z" fill="#151516"/>
<path d="M55.6358 81.1101C56.4073 81.108 61.6552 81.0484 61.9581 81.1985C62.1174 81.545 62.0361 82.0072 61.9985 82.3972C61.4593 82.3895 60.892 82.3916 60.3567 82.3544C58.7297 82.3944 57.0912 82.2836 55.4715 82.4379C54.3968 82.5403 54.1331 82.6448 53.7417 83.6317C54.7698 86.6037 61.0586 83.0867 62.2212 86.3126C62.2553 86.4052 62.2859 86.4992 62.3128 86.5939C62.6604 87.458 62.5267 88.6659 61.8341 89.3231C61.4814 89.7089 60.8649 89.9334 60.3549 89.925C57.7663 89.8829 54.8884 90.0786 52.3266 89.9039C52.2864 89.5371 52.2665 89.1408 52.2409 88.7711C54.0927 88.7276 55.9649 88.7501 57.8183 88.7073C58.4419 88.6926 59.0694 88.7101 59.6842 88.6989C59.9837 88.694 60.3565 88.5579 60.5388 88.3313C60.7271 88.097 60.9423 87.3598 60.8692 87.1185C60.2687 85.1349 54.4284 87.0414 52.8579 85.4569C52.3778 85.0535 52.1487 84.5815 52.1043 83.9383C51.9364 81.5015 53.7166 81.176 55.6358 81.1101Z" fill="#151516"/>
<path d="M38.3692 81.0965C40.5822 81.0411 42.9107 81.1091 45.1012 81.0888C46.9672 81.0712 48.8596 81.6639 48.7525 83.865C48.7534 86.1426 47.287 86.6314 45.3119 86.865C46.1755 87.7187 47.5639 89.2071 48.3954 89.9457C47.5871 90.0783 47.0849 90.0572 46.269 89.872C45.1467 88.9195 43.3004 87.0271 42.3391 85.8935C42.1381 85.7806 42.1413 85.7946 42.0025 85.6144C42.1531 85.2125 45.8107 85.8515 46.6281 85.0743C47.6728 84.1673 47.1507 82.4853 45.7536 82.4208C44.948 82.3829 40.5012 82.2615 40.115 82.5653C40.1696 83.6861 40.1907 89.165 39.8862 89.9492C39.5381 90.1323 38.8544 89.9766 38.4462 89.9176C38.3334 88.8697 38.3792 87.765 38.367 86.7107C38.3454 84.8554 38.4082 82.9483 38.3692 81.0965Z" fill="#151516"/>
<path d="M28.987 81.0582C31.9605 80.986 35.0641 80.6816 34.9882 84.6713C34.9692 85.6694 35.0266 86.6612 34.8492 87.6594C34.3847 90.2715 31.7958 89.9453 29.7572 89.9566C26.2546 89.9706 23.7622 90.4889 23.63 86.0096C23.4933 81.376 24.9096 81.1403 28.987 81.0582ZM32.5556 82.7361C31.7292 82.2885 30.2725 82.3243 29.3334 82.3334C28.1646 82.3454 26.2844 82.2626 25.6295 83.4312C25.4046 83.8247 25.4316 84.3087 25.3263 84.7239C25.3285 86.1331 25.1269 87.3115 26.0417 88.4338C26.8007 88.7487 27.5469 88.7789 28.2975 88.7866C32.4052 88.828 33.8416 89.0412 33.4222 84.2385C33.3537 83.455 33.1445 83.2243 32.5556 82.7361Z" fill="#151516"/>
<path d="M18.9432 81.1417C19.4248 81.0884 19.907 81.0414 20.3897 81C20.3264 83.5286 20.4837 86.1302 20.4068 88.6673C20.3922 89.1457 20.492 89.7391 20.1871 90.108C18.6574 89.859 18.1669 89.1211 17.0924 88.09C15.9828 87.0211 14.8576 85.9675 13.7173 84.9308C13.1675 84.4272 12.3039 83.5806 11.6959 83.2326C11.6049 83.8492 11.6585 84.5198 11.6391 85.1349C11.5918 86.6374 11.7431 88.5277 11.5606 90.0021C10.9926 90.0148 10.6039 89.9804 10.034 89.9285C10.026 88.9858 9.93471 81.4721 10.0895 81.0519C10.5755 81.0337 11.2316 80.9446 11.6828 81.1515C12.2619 81.4174 16.9413 85.8413 17.8334 86.6423C18.1031 86.885 18.3294 87.1838 18.6207 87.3942L18.7454 87.3612C18.8762 87.0484 18.8964 81.9953 18.9432 81.1417Z" fill="#151516"/>
<path d="M32.5554 82.646C33.6317 82.815 33.6092 83.809 33.608 84.7124C33.6041 87.4669 33.7368 89.0241 30.3733 88.9518C28.8848 88.9196 27.4452 89.245 25.9428 88.5941C24.9129 87.3126 25.127 86.4772 25.2644 84.9411C25.276 84.8113 25.2883 84.758 25.3261 84.6338C25.3284 86.043 25.1267 87.2214 26.0416 88.3437C26.8005 88.6586 27.5468 88.6888 28.2974 88.6965C32.4051 88.7379 33.8415 88.9511 33.422 84.1485C33.3536 83.365 33.1444 83.1342 32.5554 82.646Z" fill="black"/>
<path d="M87.9809 82.415C88.4902 82.4389 88.7097 82.6255 89.1151 82.9418C90.1119 89.1642 88.5884 89.1964 83.0576 88.9909C82.4228 88.9678 81.1511 88.8261 81.1652 87.9528C81.4808 88.1401 81.7242 88.5645 82.1324 88.6023C83.7759 88.7567 85.4951 88.7132 87.1448 88.6395C87.7046 88.6143 88.4032 88.3407 88.7392 87.8764C89.3957 87.0346 89.1481 84.3426 89.012 83.3227C88.6803 82.8282 88.4754 82.7307 87.9809 82.415Z" fill="black"/>
<path d="M40.1148 82.4751L40.0884 82.2871C40.5426 81.9624 45.642 82.2023 46.5133 82.2058C47.5527 83.0278 47.5435 83.8745 46.9015 84.9834C46.2318 86.1408 42.8861 85.2437 42.3388 85.8034C42.1379 85.6905 42.1411 85.7045 42.0023 85.5242C42.1528 85.1223 45.8104 85.7613 46.6279 84.9841C47.6726 84.0772 47.1504 82.3952 45.7534 82.3306C44.9477 82.2928 40.501 82.1714 40.1148 82.4751Z" fill="black"/>
<path d="M52.2409 88.681C54.0927 88.6375 55.9649 88.66 57.8183 88.6172C58.4419 88.6025 59.0694 88.62 59.6842 88.6088C59.9837 88.6039 60.3565 88.4678 60.5388 88.2412C60.7271 88.007 60.9423 87.2697 60.8692 87.0285C60.2687 85.0448 54.4284 86.9513 52.8579 85.3668C52.3778 84.9635 52.1487 84.4914 52.1043 83.8482C51.9364 81.4114 53.7166 81.086 55.6358 81.02C54.6932 81.4942 52.9344 81.0067 52.533 82.613C51.3075 87.5174 58.4156 85.1577 60.9255 86.3642C61.0971 87.5987 60.9909 88.8683 59.4505 88.9286C57.7067 88.9967 55.9502 88.895 54.2037 88.9721C53.7431 88.9925 52.7978 88.8059 52.4693 89.0907C52.3758 89.3425 52.3684 89.226 52.4626 89.4526C53.0145 89.8089 59.9085 89.5992 60.9563 89.5283C61.0138 89.5241 61.643 89.2667 61.8341 89.233C61.4814 89.6188 60.8649 89.8433 60.3549 89.8349C57.7663 89.7928 54.8884 89.9885 52.3266 89.8138C52.2864 89.447 52.2665 89.0507 52.2409 88.681Z" fill="black"/>
<path d="M54.1114 84.7075C53.7919 84.3014 53.587 84.0327 53.5337 83.4835C53.5011 83.1763 53.6062 82.8698 53.8207 82.6474C54.1695 82.2813 54.7653 82.1277 55.3616 82.1207C56.961 82.1017 58.6411 82.2245 60.2499 82.1656C60.2856 82.1985 60.3214 82.2315 60.3571 82.2644C58.7301 82.3044 57.0916 82.1936 55.4719 82.3479C54.3973 82.4503 54.1335 82.5548 53.7422 83.5418C54.7702 86.5137 61.059 82.9967 62.2216 86.2226C62.2557 86.3152 62.2864 86.4092 62.3133 86.5039C62.0568 86.2899 61.6413 85.4524 61.2512 85.2981C59.3859 84.5595 55.9813 85.4545 54.1114 84.7075Z" fill="black"/>
<path d="M109.809 85.7999C111.388 85.5831 113.396 85.7641 115.026 85.7136C115.637 85.6947 116.499 85.7347 117.084 85.6084C116.993 85.7326 116.963 85.8279 116.787 85.8308C114.514 85.8658 112.17 85.896 109.902 85.9325C109.903 86.7454 109.872 87.9098 109.923 88.6933C112.666 88.5172 115.283 88.6484 118 88.6828C117.977 88.9058 117.924 89.2678 117.955 89.4782L117.742 89.4908C117.747 89.279 117.758 89.2635 117.702 89.0629C117.213 88.8027 110.809 88.9269 109.644 88.9339C109.63 87.9876 109.545 86.6676 109.809 85.7999Z" fill="black"/>
<path d="M66.5581 89.1021C67.0498 89.2347 67.4314 89.5026 68.0143 89.5917C68.6203 89.7032 69.227 89.6401 69.8408 89.6626C71.6596 89.7299 73.4651 89.6275 75.2818 89.6121C75.4648 89.6106 75.5609 89.5637 75.6704 89.4318C75.5953 89.0965 75.34 89.1246 75.3028 88.8503C75.4508 88.8812 75.5252 88.891 75.6753 88.905L75.7153 88.7717C75.1071 88.5585 72.8127 88.7437 72.0475 88.8215L72.9095 88.783C72.7237 88.8545 71.8293 88.9106 71.5782 88.9071C70.2715 88.8896 68.4751 89.1877 67.4658 88.1931C67.1319 87.8676 66.8548 87.3135 66.8969 86.8323C67.0218 85.4119 66.5518 82.3404 68.6876 82.3242C67.1831 82.9071 67.1641 84.0364 67.141 85.4603C67.1256 86.3504 67.1691 87.103 67.484 87.9427C68.6603 88.8987 70.0154 88.6834 71.445 88.6574C72.9439 88.6301 74.386 88.5487 75.8892 88.5859C75.8604 88.9674 75.8541 89.443 75.723 89.7895C75.4305 90.0147 68.9338 89.8302 68.0669 89.7951C67.6208 89.7769 66.9102 89.4353 66.5581 89.1021Z" fill="black"/>
<path d="M88.2018 81.0791C91.5139 81.6992 90.8069 85.0001 90.642 87.6353C90.5403 89.2648 88.3245 90.0251 86.9364 89.8743C84.4316 89.5874 79.5426 91.0261 79.314 87.2215C80.0652 88.2736 79.7299 89.4471 81.8426 89.619C82.6563 89.6856 83.4538 89.6562 84.2773 89.6541C85.5953 89.6513 86.9357 89.699 88.2481 89.5566C90.3166 89.2395 90.6385 87.7335 90.4884 85.9505C90.3587 84.4053 90.9177 82.3655 89.1389 81.5091C88.7713 81.3323 88.5328 81.3267 88.2018 81.0791Z" fill="black"/>
<path d="M108.319 85.3037C108.456 85.5169 108.346 89.083 108.367 89.6778C109.251 89.7269 111.121 89.6554 112.085 89.6259C113.354 89.5873 116.607 89.7115 117.742 89.4905L117.955 89.4779C117.909 89.6715 117.926 89.689 117.79 89.8244C117.266 89.9163 114.408 89.8588 113.718 89.8595C111.961 89.8602 109.949 89.9549 108.214 89.877C108.3 88.6208 108.271 86.6673 108.319 85.3037Z" fill="black"/>
<path d="M38.5031 65.4027C39.9092 65.8251 41.313 66.2552 42.7143 66.6931C43.2537 66.8604 44.4411 67.3668 44.9256 67.1998L45.0239 67.063C44.9598 66.8558 44.8704 66.75 44.678 66.6432C44.2558 66.4089 43.7553 66.2606 43.3074 66.075C42.7251 65.8337 42.1555 65.5555 41.5835 65.2908C38.7732 63.9901 35.9977 62.6958 33.2801 61.21C32.4298 60.7451 31.4475 60.3348 30.7484 59.6531C30.5121 59.4227 30.3878 59.1237 30.2857 58.8154C29.9347 57.7549 28.6817 51.0772 29.0759 50.2457C29.3637 49.6385 30.7863 49.1081 31.3899 48.8045C33.345 47.8211 35.3518 46.9793 37.3794 46.1605C38.3462 45.7701 39.2991 45.3345 40.2779 44.9755C41.9765 44.3525 43.7371 43.8675 45.4814 43.3925C46.8255 43.0265 48.1668 42.6439 49.5328 42.3677C54.6946 41.2887 59.9689 40.8454 65.2386 41.0475C66.9865 41.13 68.94 41.3622 70.6824 41.5439C70.8128 42.8581 70.7658 44.6785 70.7623 46.0317L70.7385 53.096C70.7413 54.6373 70.7202 56.0829 70.8303 57.6193C69.5229 56.5473 68.2919 55.3099 67.0763 54.1301C64.6515 51.7767 62.301 49.3352 59.8365 47.0224C58.7971 46.0469 57.7296 44.8439 56.5918 44.0199C55.4586 43.1994 53.8502 43.5543 52.6009 43.8024C51.9987 43.9191 51.3775 44.106 50.9642 44.5811C50.6515 44.8959 50.5433 45.7307 50.1015 45.8894C49.1514 46.2307 48.0846 46.2904 47.102 46.5187C44.2945 47.1709 41.4849 47.7712 38.6958 48.5032C37.44 48.8327 36.1488 49.0635 34.8927 49.3962C33.6368 49.7015 32.256 50.294 30.9739 50.4327L30.8843 50.4416C31.0296 52.2761 31.3929 54.1648 31.7057 55.9823C31.848 56.8089 32.1899 58.8215 32.4657 59.573C32.556 59.8266 32.7102 60.0526 32.9133 60.2291C33.1381 60.4241 33.5358 60.6799 33.7557 60.3663C33.7719 59.6558 33.4896 58.6954 33.3861 57.9796C33.1191 56.1307 32.4652 53.7613 32.3482 51.9381C33.2901 51.7827 34.6548 51.5391 35.6043 51.5195C35.6129 51.5413 35.6219 51.563 35.63 51.5849C36.042 52.6965 36.0359 54.1754 36.1525 55.3564C36.2791 56.6391 36.8085 60.7655 37.4696 61.7011C37.7335 62.0746 38.3478 62.3446 38.7544 62.5369C39.9728 63.1132 41.2316 63.605 42.4616 64.156C43.8032 64.757 45.1391 65.3216 46.5015 65.8726C47.2043 66.1568 47.916 66.4822 48.6458 66.6863C49.2067 66.8432 49.9911 67.0459 50.5523 66.8436C51.512 66.4977 53.9578 64.571 54.3575 63.6386C54.8101 62.5833 54.4752 56.0211 54.6355 54.2095C58.379 57.7745 61.8977 61.5718 65.7331 65.0323C68.1768 67.2377 71.8257 69.1379 75.1764 68.1278C74.428 67.4951 73.3099 66.9233 72.4478 66.4119C71.268 65.7276 70.1633 64.9229 69.1497 64.0108C67.8626 62.8562 66.1939 61.1042 64.9271 59.8646L57.4191 52.6538C56.7314 52.0006 54.7973 49.9366 54.0507 49.5354C53.3606 49.1644 50.7115 49.9152 49.8823 49.9669C47.8105 50.3063 45.7493 50.5944 43.6809 50.9426C42.4499 51.1479 39.3891 51.7882 38.237 51.7169C38.7359 51.4233 39.2415 51.2043 39.7945 51.0317C41.8252 50.3983 53.1043 47.8902 54.7219 48.2625C55.0322 48.3339 55.3123 48.5299 55.5535 48.73C56.7139 49.6924 57.7783 50.8823 58.8679 51.9335L67.6248 60.4923C68.4658 61.2996 69.8996 62.8585 70.8002 63.473C72.741 64.7968 74.9807 66.149 77.1972 66.9067C77.9548 67.1529 80.0022 66.1977 80.7261 65.939C82.0174 65.4609 89.9569 62.3653 90.2396 61.6149C91.2959 58.8041 91.4762 54.6965 92.0731 51.7024C92.1475 51.3241 95.0465 51.9573 95.4287 52.0313C95.1306 54.1556 94.6593 56.3295 94.385 58.4669C94.3268 58.9226 94.1115 59.9739 94.1185 60.3681C94.3983 60.4359 94.7462 60.2027 95.0121 60.0602C96.0453 57.7017 96.2648 54.9378 96.6604 52.4044C96.753 51.8134 96.9557 50.9735 96.9635 50.4147C94.754 50.0923 92.6006 49.4178 90.4135 48.8828C85.9552 47.7922 81.4156 46.799 76.8998 45.9649C76.3359 45.8607 75.6765 45.7681 75.1105 45.7209C75.1021 44.4926 75.0628 43.1943 75.0705 41.9785C75.9115 42.0656 76.627 42.2618 77.449 42.4484C84.2971 44.0037 90.9557 46.1769 97.2349 49.3454C97.7897 49.6254 98.4007 49.9785 98.8966 50.3489C98.9801 51.643 97.9812 58.6687 97.3268 59.4116C96.7965 60.0132 95.8349 60.425 95.1355 60.8133C92.4245 62.3178 89.6251 63.631 86.8145 64.9348C85.3261 65.6249 83.5627 66.2651 82.2054 67.1613C84.2704 67.162 86.7794 66.0587 88.7876 65.4668C89.2618 65.3271 91.1641 64.4766 91.5183 64.4928C91.3499 65.0099 87.4816 67.1005 86.7479 67.472C84.3083 68.7079 75.8652 72.3981 73.4621 71.6076C72.0586 71.1454 70.1577 69.8618 68.9442 68.9801C67.9306 68.2443 66.7389 67.0853 65.4981 66.7758C64.669 66.5688 63.5474 66.6938 62.6924 66.7186C61.897 66.7417 60.8406 66.6783 60.1101 67.0155C59.368 67.3577 58.7096 68.0254 58.0744 68.5417C56.9718 69.4374 54.0053 71.7921 52.6655 71.83C51.8263 71.8538 49.7237 71.1819 48.8623 70.8915C46.3818 70.0561 43.7996 69.0313 41.4745 67.8381C40.5945 67.3787 39.7184 66.9112 38.8463 66.4366C38.5188 66.2549 37.7479 65.7857 37.44 65.6567C37.4757 65.4745 37.445 65.5102 37.539 65.3686C37.9291 65.3385 38.0833 65.4633 38.5031 65.4027Z" fill="#151516"/>
<path d="M84.3464 55.2967C84.6207 55.311 84.8928 55.2664 85.1671 55.2344C85.125 55.9169 85.2744 57.081 84.9959 57.4826C84.5372 57.7933 83.8372 57.6943 83.2578 57.681C83.0067 57.6661 82.6931 57.6215 82.4378 57.5928C82.3992 56.9252 82.4034 56.0368 82.4743 55.3735C83.0368 55.3192 83.7698 55.3155 84.3464 55.2967Z" fill="#151516"/>
<path d="M86.0418 52.553C86.6282 52.5145 87.9097 52.6243 88.5256 52.671C88.5607 53.1848 88.7031 54.4371 88.339 54.8195C87.5176 54.8767 86.6668 54.8873 85.8286 54.9427C85.8483 54.2995 85.8377 53.6516 85.8454 53.0092C85.8497 52.6937 85.8672 52.7177 86.0418 52.553Z" fill="#151516"/>
<path d="M75.0925 48.3145C75.7448 48.3112 77.1701 48.649 77.8757 48.7773C79.2891 49.0341 80.7439 49.2559 82.146 49.5521C82.7226 49.6739 83.5664 50.0565 84.1528 50.2156C84.7729 50.3836 85.3186 50.5378 85.9331 50.7376L85.9309 50.8134C83.6338 50.3835 81.331 49.9875 79.0226 49.6255C77.8316 49.444 76.6034 49.2772 75.4144 49.0795C75.164 49.0379 75.1956 49.0241 75.0595 48.863C75.0055 48.5812 75.0118 48.5948 75.0925 48.3145Z" fill="url(#paint0_linear_6_1381)"/>
<path d="M35.7886 64.4634C36.5068 64.6166 37.7795 65.1323 38.5035 65.4027C38.0836 65.4633 37.9295 65.3385 37.5393 65.3686C37.4453 65.5102 37.4761 65.4745 37.4404 65.6567C36.8904 65.347 36.2512 64.8928 35.7886 64.4634Z" fill="black" fill-opacity="0.92549"/>
<defs>
<linearGradient id="paint0_linear_6_1381" x1="80.2529" y1="49.9008" x2="80.3834" y2="49.2804" gradientUnits="userSpaceOnUse">
<stop stop-color="#040303" stop-opacity="0.941176"/>
<stop offset="1" stop-color="#030203" stop-opacity="0.988235"/>
</linearGradient>
</defs>
</svg>
